<svg width="134" height="134" viewBox="0 0 134 134" fill="none" xmlns="http://www.w3.org/2000/svg">
<path d="M12 15.3333C8.13334 20 13.4667 45.7333 21.6 62C39.0667 96.8 75.0667 121.6 108.533 121.867C120.267 122 120.533 121.867 121.467 118.667C122.8 113.867 122.8 90.2666 121.467 88.1333C120.8 87.2 115.067 85.2 108.533 83.8666C102 82.4 95.3333 80.9333 93.6 80.4C91.0667 79.8666 89.2 80.9333 84 86C79.0667 90.9333 77.0667 92.1333 74.8 91.3333C69.7333 89.7333 55.8667 77.7333 48.5333 68.5333L41.4667 59.6L48.1333 52.2666C53.7333 46.1333 54.8 44.2666 54.1333 41.4666C53.6 39.6 51.8667 32.5333 50.1333 26L47.0667 14L30.4 13.6C16.6667 13.3333 13.4667 13.6 12 15.3333Z" fill="#C3C3C3"/>
</svg>
