<svg width="1114" height="882" viewBox="0 0 1114 882" fill="none" xmlns="http://www.w3.org/2000/svg">
<path d="M461.264 391V357.112H468.8V391H461.264ZM482.24 391V357.112H489.824V391H482.24ZM465.776 376.84V370.312H484.736V376.84H465.776ZM506.887 391.528C504.487 391.528 502.311 391 500.359 389.944C498.439 388.856 496.919 387.384 495.799 385.528C494.679 383.672 494.119 381.592 494.119 379.288C494.119 376.984 494.679 374.92 495.799 373.096C496.919 371.272 498.439 369.832 500.359 368.776C502.279 367.688 504.455 367.144 506.887 367.144C509.319 367.144 511.495 367.672 513.415 368.728C515.335 369.784 516.855 371.24 517.975 373.096C519.095 374.92 519.655 376.984 519.655 379.288C519.655 381.592 519.095 383.672 517.975 385.528C516.855 387.384 515.335 388.856 513.415 389.944C511.495 391 509.319 391.528 506.887 391.528ZM506.887 384.856C507.943 384.856 508.871 384.632 509.671 384.184C510.471 383.704 511.079 383.048 511.495 382.216C511.943 381.352 512.167 380.376 512.167 379.288C512.167 378.2 511.943 377.256 511.495 376.456C511.047 375.624 510.423 374.984 509.623 374.536C508.855 374.056 507.943 373.816 506.887 373.816C505.863 373.816 504.951 374.056 504.151 374.536C503.351 374.984 502.727 375.624 502.279 376.456C501.831 377.288 501.607 378.248 501.607 379.336C501.607 380.392 501.831 381.352 502.279 382.216C502.727 383.048 503.351 383.704 504.151 384.184C504.951 384.632 505.863 384.856 506.887 384.856ZM531.807 391.576C530.431 391.576 529.071 391.4 527.727 391.048C526.415 390.696 525.183 390.2 524.031 389.56C522.911 388.888 521.951 388.12 521.151 387.256L525.327 383.032C526.095 383.864 527.007 384.52 528.063 385C529.119 385.448 530.271 385.672 531.519 385.672C532.383 385.672 533.039 385.544 533.487 385.288C533.967 385.032 534.207 384.68 534.207 384.232C534.207 383.656 533.919 383.224 533.343 382.936C532.799 382.616 532.095 382.344 531.231 382.12C530.367 381.864 529.455 381.592 528.495 381.304C527.535 381.016 526.623 380.616 525.759 380.104C524.895 379.592 524.191 378.888 523.647 377.992C523.103 377.064 522.831 375.896 522.831 374.488C522.831 372.984 523.215 371.688 523.983 370.6C524.751 369.48 525.839 368.6 527.247 367.96C528.655 367.32 530.303 367 532.191 367C534.175 367 535.999 367.352 537.663 368.056C539.359 368.728 540.735 369.736 541.791 371.08L537.615 375.304C536.879 374.44 536.047 373.832 535.119 373.48C534.223 373.128 533.343 372.952 532.479 372.952C531.647 372.952 531.023 373.08 530.607 373.336C530.191 373.56 529.983 373.896 529.983 374.344C529.983 374.824 530.255 375.208 530.799 375.496C531.343 375.784 532.047 376.04 532.911 376.264C533.775 376.488 534.687 376.76 535.647 377.08C536.607 377.4 537.519 377.832 538.383 378.376C539.247 378.92 539.951 379.656 540.495 380.584C541.039 381.48 541.311 382.664 541.311 384.136C541.311 386.408 540.447 388.216 538.719 389.56C537.023 390.904 534.719 391.576 531.807 391.576ZM558.735 391.48C557.167 391.48 555.727 391.176 554.415 390.568C553.103 389.96 552.031 389.128 551.199 388.072C550.367 386.984 549.887 385.752 549.759 384.376V374.536C549.887 373.16 550.367 371.912 551.199 370.792C552.031 369.672 553.103 368.792 554.415 368.152C555.727 367.512 557.167 367.192 558.735 367.192C560.943 367.192 562.895 367.72 564.591 368.776C566.319 369.832 567.663 371.272 568.623 373.096C569.615 374.92 570.111 377 570.111 379.336C570.111 381.672 569.615 383.752 568.623 385.576C567.663 387.4 566.319 388.84 564.591 389.896C562.895 390.952 560.943 391.48 558.735 391.48ZM557.391 384.856C558.447 384.856 559.359 384.616 560.127 384.136C560.927 383.656 561.551 383 561.999 382.168C562.447 381.336 562.671 380.392 562.671 379.336C562.671 378.248 562.447 377.288 561.999 376.456C561.551 375.624 560.927 374.984 560.127 374.536C559.359 374.056 558.463 373.816 557.439 373.816C556.415 373.816 555.503 374.056 554.703 374.536C553.935 374.984 553.327 375.624 552.879 376.456C552.431 377.288 552.207 378.248 552.207 379.336C552.207 380.392 552.415 381.336 552.831 382.168C553.279 383 553.903 383.656 554.703 384.136C555.503 384.616 556.399 384.856 557.391 384.856ZM545.295 400.84V367.672H552.639V373.672L551.439 379.336L552.543 385V400.84H545.295ZM573.842 391V367.672H581.186V391H573.842ZM577.538 364.456C576.386 364.456 575.426 364.072 574.658 363.304C573.922 362.504 573.554 361.544 573.554 360.424C573.554 359.272 573.922 358.312 574.658 357.544C575.426 356.776 576.386 356.392 577.538 356.392C578.69 356.392 579.634 356.776 580.37 357.544C581.106 358.312 581.474 359.272 581.474 360.424C581.474 361.544 581.106 362.504 580.37 363.304C579.634 364.072 578.69 364.456 577.538 364.456ZM589.67 391V358.024H597.014V391H589.67ZM584.39 373.912V367.672H602.294V373.912H584.39ZM614.805 391.48C612.661 391.48 610.741 390.952 609.045 389.896C607.381 388.84 606.053 387.4 605.061 385.576C604.101 383.752 603.621 381.672 603.621 379.336C603.621 377 604.101 374.92 605.061 373.096C606.053 371.272 607.381 369.832 609.045 368.776C610.741 367.72 612.661 367.192 614.805 367.192C616.373 367.192 617.781 367.496 619.029 368.104C620.309 368.712 621.349 369.56 622.149 370.648C622.949 371.704 623.397 372.92 623.493 374.296V384.376C623.397 385.752 622.949 386.984 622.149 388.072C621.381 389.128 620.357 389.96 619.077 390.568C617.797 391.176 616.373 391.48 614.805 391.48ZM616.293 384.856C617.861 384.856 619.125 384.344 620.085 383.32C621.045 382.264 621.525 380.936 621.525 379.336C621.525 378.248 621.301 377.288 620.853 376.456C620.437 375.624 619.829 374.984 619.029 374.536C618.261 374.056 617.365 373.816 616.341 373.816C615.317 373.816 614.405 374.056 613.605 374.536C612.837 374.984 612.213 375.624 611.733 376.456C611.285 377.288 611.061 378.248 611.061 379.336C611.061 380.392 611.285 381.336 611.733 382.168C612.181 383 612.805 383.656 613.605 384.136C614.405 384.616 615.301 384.856 616.293 384.856ZM621.237 391V384.712L622.341 379.048L621.237 373.384V367.672H628.437V391H621.237ZM633.608 391V356.152H640.952V391H633.608Z" fill="#FF0000"/>
<path d="M707.264 391V357.112H712.64L725.984 377.896H723.248L736.544 357.112H741.968V391H734.432V369.832L735.776 370.168L727.088 383.704H722.096L713.456 370.168L714.752 369.832V391H707.264ZM757.539 391.48C755.395 391.48 753.475 390.952 751.779 389.896C750.115 388.84 748.787 387.4 747.795 385.576C746.835 383.752 746.355 381.672 746.355 379.336C746.355 377 746.835 374.92 747.795 373.096C748.787 371.272 750.115 369.832 751.779 368.776C753.475 367.72 755.395 367.192 757.539 367.192C759.107 367.192 760.515 367.496 761.763 368.104C763.043 368.712 764.083 369.56 764.883 370.648C765.683 371.704 766.131 372.92 766.227 374.296V384.376C766.131 385.752 765.683 386.984 764.883 388.072C764.115 389.128 763.091 389.96 761.811 390.568C760.531 391.176 759.107 391.48 757.539 391.48ZM759.027 384.856C760.595 384.856 761.859 384.344 762.819 383.32C763.779 382.264 764.259 380.936 764.259 379.336C764.259 378.248 764.035 377.288 763.587 376.456C763.171 375.624 762.563 374.984 761.763 374.536C760.995 374.056 760.099 373.816 759.075 373.816C758.051 373.816 757.139 374.056 756.339 374.536C755.571 374.984 754.947 375.624 754.467 376.456C754.019 377.288 753.795 378.248 753.795 379.336C753.795 380.392 754.019 381.336 754.467 382.168C754.915 383 755.539 383.656 756.339 384.136C757.139 384.616 758.035 384.856 759.027 384.856ZM763.971 391V384.712L765.075 379.048L763.971 373.384V367.672H771.171V391H763.971ZM791.75 391V377.704C791.75 376.488 791.366 375.512 790.598 374.776C789.862 374.008 788.918 373.624 787.766 373.624C786.966 373.624 786.262 373.8 785.654 374.152C785.046 374.472 784.566 374.952 784.214 375.592C783.862 376.2 783.686 376.904 783.686 377.704L780.854 376.312C780.854 374.488 781.254 372.888 782.054 371.512C782.854 370.136 783.958 369.08 785.366 368.344C786.806 367.576 788.422 367.192 790.214 367.192C791.942 367.192 793.462 367.608 794.774 368.44C796.118 369.24 797.174 370.312 797.942 371.656C798.71 373 799.094 374.472 799.094 376.072V391H791.75ZM776.342 391V367.672H783.686V391H776.342ZM813.555 391.48C811.411 391.48 809.491 390.952 807.795 389.896C806.131 388.84 804.803 387.4 803.811 385.576C802.851 383.752 802.371 381.672 802.371 379.336C802.371 377 802.851 374.92 803.811 373.096C804.803 371.272 806.131 369.832 807.795 368.776C809.491 367.72 811.411 367.192 813.555 367.192C815.123 367.192 816.531 367.496 817.779 368.104C819.059 368.712 820.099 369.56 820.899 370.648C821.699 371.704 822.147 372.92 822.243 374.296V384.376C822.147 385.752 821.699 386.984 820.899 388.072C820.131 389.128 819.107 389.96 817.827 390.568C816.547 391.176 815.123 391.48 813.555 391.48ZM815.043 384.856C816.611 384.856 817.875 384.344 818.835 383.32C819.795 382.264 820.275 380.936 820.275 379.336C820.275 378.248 820.051 377.288 819.603 376.456C819.187 375.624 818.579 374.984 817.779 374.536C817.011 374.056 816.115 373.816 815.091 373.816C814.067 373.816 813.155 374.056 812.355 374.536C811.587 374.984 810.963 375.624 810.483 376.456C810.035 377.288 809.811 378.248 809.811 379.336C809.811 380.392 810.035 381.336 810.483 382.168C810.931 383 811.555 383.656 812.355 384.136C813.155 384.616 814.051 384.856 815.043 384.856ZM819.987 391V384.712L821.091 379.048L819.987 373.384V367.672H827.187V391H819.987ZM842.246 401.464C839.686 401.464 837.43 401.016 835.478 400.12C833.558 399.256 832.038 398.024 830.918 396.424L835.43 391.912C836.262 392.904 837.19 393.656 838.214 394.168C839.27 394.68 840.534 394.936 842.006 394.936C843.83 394.936 845.254 394.488 846.278 393.592C847.334 392.696 847.862 391.432 847.862 389.8V383.848L849.11 378.76L848.006 373.672V367.672H855.206V389.608C855.206 392.008 854.646 394.088 853.526 395.848C852.406 397.608 850.87 398.984 848.918 399.976C846.966 400.968 844.742 401.464 842.246 401.464ZM841.91 390.28C839.766 390.28 837.862 389.768 836.198 388.744C834.534 387.72 833.222 386.328 832.262 384.568C831.302 382.808 830.822 380.856 830.822 378.712C830.822 376.536 831.302 374.584 832.262 372.856C833.222 371.096 834.534 369.72 836.198 368.728C837.862 367.704 839.766 367.192 841.91 367.192C843.51 367.192 844.934 367.496 846.182 368.104C847.462 368.68 848.486 369.512 849.254 370.6C850.054 371.656 850.502 372.888 850.598 374.296V383.176C850.502 384.552 850.054 385.784 849.254 386.872C848.486 387.928 847.462 388.76 846.182 389.368C844.902 389.976 843.478 390.28 841.91 390.28ZM843.302 383.752C844.326 383.752 845.206 383.528 845.942 383.08C846.71 382.632 847.286 382.04 847.67 381.304C848.086 380.536 848.294 379.672 848.294 378.712C848.294 377.752 848.086 376.888 847.67 376.12C847.286 375.352 846.71 374.744 845.942 374.296C845.206 373.848 844.326 373.624 843.302 373.624C842.31 373.624 841.43 373.848 840.662 374.296C839.894 374.744 839.302 375.352 838.886 376.12C838.47 376.888 838.262 377.752 838.262 378.712C838.262 379.608 838.47 380.456 838.886 381.256C839.302 382.024 839.878 382.632 840.614 383.08C841.382 383.528 842.278 383.752 843.302 383.752ZM860.389 391V367.672H867.733V391H860.389ZM875.317 391V377.368C875.317 376.184 874.949 375.272 874.213 374.632C873.509 373.96 872.629 373.624 871.573 373.624C870.837 373.624 870.181 373.784 869.605 374.104C869.029 374.392 868.565 374.808 868.213 375.352C867.893 375.896 867.733 376.568 867.733 377.368L864.901 376.12C864.901 374.264 865.301 372.68 866.101 371.368C866.901 370.024 867.989 369 869.365 368.296C870.741 367.56 872.293 367.192 874.021 367.192C875.653 367.192 877.109 367.56 878.389 368.296C879.701 369.032 880.741 370.056 881.509 371.368C882.277 372.68 882.661 374.248 882.661 376.072V391H875.317ZM890.245 391V377.368C890.245 376.184 889.877 375.272 889.141 374.632C888.437 373.96 887.557 373.624 886.501 373.624C885.765 373.624 885.109 373.784 884.533 374.104C883.957 374.392 883.493 374.808 883.141 375.352C882.821 375.896 882.661 376.568 882.661 377.368L878.437 376.792C878.501 374.808 878.965 373.112 879.829 371.704C880.725 370.264 881.893 369.16 883.333 368.392C884.805 367.592 886.453 367.192 888.277 367.192C890.069 367.192 891.653 367.576 893.029 368.344C894.437 369.08 895.541 370.152 896.341 371.56C897.173 372.936 897.589 374.6 897.589 376.552V391H890.245ZM913.815 391.528C911.287 391.528 909.031 391.016 907.047 389.992C905.095 388.936 903.559 387.48 902.439 385.624C901.319 383.768 900.759 381.672 900.759 379.336C900.759 377 901.303 374.92 902.391 373.096C903.511 371.24 905.015 369.784 906.903 368.728C908.791 367.672 910.919 367.144 913.287 367.144C915.591 367.144 917.623 367.64 919.383 368.632C921.143 369.624 922.519 371 923.511 372.76C924.535 374.52 925.047 376.536 925.047 378.808C925.047 379.224 925.015 379.672 924.951 380.152C924.919 380.6 924.839 381.128 924.711 381.736L904.599 381.784V376.744L921.591 376.696L918.423 378.808C918.391 377.464 918.183 376.36 917.799 375.496C917.415 374.6 916.839 373.928 916.071 373.48C915.335 373 914.423 372.76 913.335 372.76C912.183 372.76 911.175 373.032 910.311 373.576C909.479 374.088 908.823 374.824 908.343 375.784C907.895 376.744 907.671 377.912 907.671 379.288C907.671 380.664 907.911 381.848 908.391 382.84C908.903 383.8 909.607 384.552 910.503 385.096C911.431 385.608 912.519 385.864 913.767 385.864C914.919 385.864 915.959 385.672 916.887 385.288C917.815 384.872 918.631 384.264 919.335 383.464L923.367 387.496C922.215 388.84 920.823 389.848 919.191 390.52C917.559 391.192 915.767 391.528 913.815 391.528ZM944 391V377.704C944 376.488 943.616 375.512 942.848 374.776C942.112 374.008 941.168 373.624 940.016 373.624C939.216 373.624 938.512 373.8 937.904 374.152C937.296 374.472 936.816 374.952 936.464 375.592C936.112 376.2 935.936 376.904 935.936 377.704L933.104 376.312C933.104 374.488 933.504 372.888 934.304 371.512C935.104 370.136 936.208 369.08 937.616 368.344C939.056 367.576 940.672 367.192 942.464 367.192C944.192 367.192 945.712 367.608 947.024 368.44C948.368 369.24 949.424 370.312 950.192 371.656C950.96 373 951.344 374.472 951.344 376.072V391H944ZM928.592 391V367.672H935.936V391H928.592ZM959.092 391V358.024H966.436V391H959.092ZM953.812 373.912V367.672H971.716V373.912H953.812Z" fill="#FF0000"/>
<path d="M433 382.031C433 382.856 433 412.717 433 448.518V513.685L436.067 516.655C443.8 524.409 483.267 564.829 512.733 595.021C530.6 613.333 547 629.831 549.133 631.811L552.867 635.111L563.933 623.892C570.067 617.788 580.733 606.734 587.8 599.475C594.867 592.216 616.6 569.944 636.2 550.146L671.667 514.015V506.426C671.667 502.302 672.067 472.605 672.6 440.599C673.267 396.219 673 382.526 671.8 382.526C671 382.526 659.667 393.414 646.6 406.613C633.667 419.976 611.667 442.414 597.8 456.602C583.933 470.79 568.067 486.958 562.6 492.568C552.867 502.467 552.467 502.631 549.667 499.992C548.2 498.507 533.533 483.494 517.133 466.666C500.733 449.838 485.4 434.33 483.133 432.02C480.867 429.875 468.6 417.337 456.067 404.303C443.4 391.435 433 381.371 433 382.031ZM490.333 498.342C537.4 546.681 551.933 560.87 553.4 560.21C555 559.385 558.333 555.92 608.2 504.941C622.6 490.258 634.6 478.214 635 478.214C636.467 478.214 635.533 490.918 634.067 493.393C633.133 494.712 628.733 499.497 624.333 503.786C617 511.21 604.333 524.079 573.533 555.755C551.267 578.688 552.733 577.368 550.467 575.058C542.867 567.304 516.6 540.577 495.667 519.295C482.067 505.601 470.733 494.052 470.467 493.723C469.533 492.568 469 481.184 469.8 479.534C470.6 478.049 470.6 478.049 490.333 498.342Z" fill="#FF0000"/>
<path d="M433 564.004V601.95H451H469V582.317V562.849L451 544.372L433 526.059V564.004Z" fill="#FF0000"/>
<path d="M653.685 586.675L636 649.156V715.578V782L654.35 780.311L672.567 778.623L672.966 655.348C673.099 587.238 672.833 529.822 672.301 528.134C671.636 525.882 663.259 552.338 653.685 586.675Z" fill="#FF0000"/>
<path d="M346.725 83.8784C347.574 83.6021 347.574 83.6021 348.44 83.3202C349.087 83.1072 349.734 82.8943 350.4 82.6749C351.117 82.4441 351.834 82.2133 352.573 81.9755C353.322 81.7303 354.071 81.4851 354.843 81.2325C356.903 80.5591 358.965 79.8899 361.028 79.2226C363.181 78.525 365.332 77.822 367.483 77.1195C371.56 75.7893 375.638 74.4639 379.717 73.1402C384.359 71.6333 389 70.1211 393.641 68.6085C403.189 65.4962 412.74 62.3906 422.292 59.2895C422.742 63.3379 422.988 66.9863 422.864 70.871C422.833 71.9152 422.801 72.9595 422.768 74.0355C422.711 75.7064 422.711 75.7064 422.652 77.4111C422.597 79.1656 422.597 79.1656 422.54 80.9556C422.245 89.9674 421.853 98.9334 421.448 107.896C421.078 116.377 420.894 124.92 420.757 133.499C420.629 141.235 420.394 148.915 420.1 156.581C419.825 163.816 419.602 171.071 419.396 178.335C419.138 187.391 418.841 196.429 418.505 205.451C418.243 212.597 418.034 219.765 417.835 226.938C417.587 235.784 417.261 244.587 416.865 253.368C416.46 262.371 416.188 271.41 416.021 280.514C415.834 290.563 415.501 300.545 415.161 310.53C414.99 315.618 414.827 320.709 414.663 325.8C414.467 331.877 414.27 337.953 414.07 344.029C414.004 346.043 413.938 348.057 413.873 350.072C413.84 351.059 413.808 352.045 413.774 353.062C413.594 358.594 413.428 364.131 413.276 369.675C413.243 370.881 413.209 372.087 413.175 373.33C413.11 375.665 413.048 378 412.988 380.336C412.959 381.392 412.93 382.448 412.9 383.536C412.875 384.468 412.85 385.399 412.825 386.359C412.763 387.619 412.763 387.619 412.699 388.903C412.727 389.995 431.472 382.422 431.5 383.536C430.429 387.172 409.101 394.842 406.395 395.67C405.787 395.872 405.179 396.074 404.553 396.283C402.505 396.96 400.448 397.609 398.392 398.259C396.926 398.737 395.461 399.217 393.996 399.699C390.836 400.733 387.672 401.756 384.505 402.769C379.926 404.232 375.354 405.717 370.783 407.207C363.368 409.623 355.947 412.023 348.523 414.411C341.31 416.732 334.1 419.061 326.894 421.4C326.45 421.544 326.005 421.689 325.548 421.837C323.32 422.56 321.092 423.284 318.864 424.007C300.378 430.011 281.883 435.986 263.382 441.945C263.102 437.967 263.057 434.231 263.155 430.373C263.17 429.76 263.185 429.147 263.201 428.515C263.25 426.519 263.304 424.526 263.358 422.532C263.394 421.138 263.43 419.744 263.465 418.35C263.695 409.563 263.975 400.8 264.306 392.057C264.704 381.492 264.996 370.883 265.301 360.278C265.436 355.589 265.58 350.904 265.727 346.22C265.833 342.85 265.934 339.478 266.028 336.103C266.049 335.382 266.07 334.662 266.091 333.919C266.129 332.596 266.165 331.273 266.2 329.949C266.239 328.615 266.307 327.294 266.398 325.984C266.496 323.208 266.496 323.208 265.959 319.536C265.521 314.734 265.482 310.819 267.265 307.354C272.345 303.115 279.009 301.962 285.124 300.431C287.451 299.832 289.753 299.151 292.057 298.476C296.57 297.168 301.108 295.952 305.667 294.793C305.896 298.149 306.026 301.361 305.962 304.624C305.945 305.526 305.927 306.427 305.909 307.356C305.887 308.323 305.865 309.289 305.842 310.285C305.821 311.298 305.799 312.312 305.776 313.356C305.568 322.165 305.216 330.906 304.803 339.626C304.451 347.201 304.316 354.776 304.185 362.463C323.795 355.702 343.406 348.941 363.611 341.975C363.864 332.538 364.118 323.102 364.379 313.38C364.547 307.721 364.718 302.065 364.902 296.413C364.946 295.027 364.946 295.027 364.992 293.613C365.128 289.413 365.264 285.214 365.4 281.014C365.59 275.187 365.775 269.358 365.953 263.526C366.195 255.561 366.454 247.603 366.713 239.645C366.902 233.818 367.088 227.989 367.265 222.156C367.508 214.193 367.766 206.236 368.026 198.28C368.217 192.408 368.401 186.533 368.577 180.655C368.86 171.292 369.203 161.955 369.545 152.618C369.667 149.266 369.787 145.913 369.907 142.56C361.257 145.389 352.608 148.218 343.696 151.133C343.653 142.679 343.611 134.432 343.968 126.178C344.384 115.723 344.673 105.219 344.93 94.6957C344.96 93.5232 344.99 92.3507 345.02 91.1426C345.046 90.0926 345.071 89.0427 345.097 87.9609C345.229 84.5241 345.229 84.5241 346.725 83.8784Z" fill="#FF0000"/>
<path d="M182.374 142.887C183.831 142.382 185.287 141.872 186.741 141.356C190.279 140.118 193.835 138.937 197.401 137.78C201.55 136.43 205.676 135.011 209.8 133.587C217.154 131.05 224.528 128.568 231.913 126.121C239.085 123.744 246.248 121.342 253.4 118.904C254.061 118.679 254.061 118.679 254.737 118.449C256.95 117.694 259.163 116.939 261.376 116.184C279.721 109.924 298.097 103.754 316.492 97.6405C316.978 101.351 317.348 104.73 317.266 108.283C317.25 109.135 317.233 109.987 317.216 110.865C317.194 111.779 317.172 112.692 317.149 113.633C317.109 115.645 317.071 117.657 317.033 119.67C317.012 120.722 316.992 121.774 316.97 122.858C316.876 128.264 316.832 133.691 316.789 139.118C316.779 140.227 316.77 141.336 316.76 142.478C316.742 144.741 316.723 147.003 316.704 149.266C316.582 164.332 316.446 179.393 316.257 194.432C316.188 199.981 316.131 205.535 316.087 211.095C316.082 211.71 316.077 212.325 316.072 212.959C316.048 215.96 316.025 218.961 316.005 221.963C315.993 223.566 315.993 223.566 315.98 225.202C315.97 226.629 315.97 226.629 315.96 228.084C315.911 230.266 325.276 234.182 325 235.338C323.842 235.841 313.294 232.363 312.102 232.775C311.339 233.042 310.575 233.308 309.788 233.583C308.947 233.871 308.105 234.159 307.264 234.447C306.409 234.744 305.554 235.04 304.699 235.338C302.445 236.12 300.189 236.897 297.933 237.673C295.632 238.465 293.334 239.263 291.035 240.06C286.521 241.624 282.005 243.182 277.488 244.736C276.983 240.885 276.636 237.402 276.704 233.708C276.719 232.77 276.733 231.832 276.748 230.866C276.768 229.862 276.788 228.859 276.808 227.825C276.842 225.646 276.876 223.467 276.909 221.288C276.927 220.14 276.945 218.991 276.964 217.808C277.049 211.48 277.081 205.131 277.115 198.783C277.128 196.406 277.142 194.028 277.155 191.651C277.163 190.142 277.163 190.142 277.171 188.602C277.2 185.08 277.257 181.569 277.311 178.057C257.729 184.891 238.147 191.726 217.971 198.767C218.115 200.465 218.26 202.163 218.408 203.912C218.434 205.891 218.437 207.862 218.421 209.825C218.413 210.976 218.404 212.127 218.396 213.312C218.385 214.554 218.373 215.796 218.362 217.038C218.352 218.33 218.341 219.622 218.331 220.915C218.259 229.929 218.159 238.931 218.044 247.927C217.949 255.431 217.88 262.944 217.818 270.461C217.743 279.496 217.628 288.512 217.479 297.517C217.345 305.833 217.271 314.173 217.202 322.516C217.114 333.009 216.99 343.487 216.86 353.964C216.823 357.09 216.789 360.218 216.756 363.346C216.745 364.401 216.733 365.455 216.721 366.542C216.7 368.505 216.68 370.468 216.661 372.432C216.56 381.549 216.306 390.58 216.08 399.651C224.673 396.652 233.265 393.653 242.117 390.563C242.45 394.478 242.597 397.922 242.569 401.695C242.557 403.439 242.557 403.439 242.545 405.219C242.534 406.468 242.523 407.716 242.511 408.965C242.501 410.251 242.491 411.537 242.481 412.824C242.416 420.787 242.326 428.74 242.208 436.681C242.195 437.546 242.182 438.411 242.169 439.302C242.143 440.904 242.107 442.502 242.058 444.094C241.993 446.728 241.993 446.728 242.19 449.438C242.455 456.599 242.455 456.599 240.439 458.848C238.568 459.851 236.67 460.516 234.647 461.114C233.903 461.376 233.159 461.637 232.392 461.906C230.355 462.611 228.307 463.273 226.249 463.917C224.1 464.601 221.969 465.338 219.837 466.07C215.799 467.446 211.745 468.774 207.685 470.085C203.061 471.58 198.457 473.129 193.854 474.682C184.388 477.875 176.832 521.919 167.327 525C167.01 521.441 164.9 477.13 164.894 473.663C164.891 472.141 164.891 472.141 164.888 470.588C164.889 469.506 164.889 468.423 164.89 467.308C164.889 466.178 164.889 465.047 164.888 463.882C164.895 453.877 165.04 443.933 165.217 433.996C165.299 429.023 165.356 424.039 165.413 419.056C165.43 417.528 165.43 417.528 165.448 415.968C165.472 413.904 165.495 411.839 165.519 409.774C165.554 406.729 165.591 403.684 165.629 400.64C165.789 387.683 165.918 374.714 166.03 361.737C166.077 356.219 166.132 350.703 166.193 345.19C166.238 340.998 166.273 336.802 166.303 332.604C166.385 321.43 166.519 310.287 166.797 299.194C167.034 289.638 167.087 280.033 167.043 270.365C167.005 260.584 167.154 250.888 167.327 241.192C167.39 237.413 167.431 233.625 167.468 229.835C167.474 229.148 167.481 228.461 167.488 227.753C167.501 226.392 167.514 225.032 167.526 223.671C167.558 220.321 167.592 216.972 167.626 213.624C167.637 212.599 167.637 212.599 167.647 211.554C167.725 204.112 167.814 196.675 167.906 189.239C167.963 184.606 168.017 179.972 168.051 175.33C168.056 174.594 168.062 173.858 168.068 173.099C168.082 171.2 168.094 169.299 168.105 167.398C168.131 166.768 168.157 166.137 168.184 165.487C168.232 163.047 168.232 163.047 167.84 159.927C166.989 145.857 174.256 145.421 182.374 142.887Z" fill="#FF0000"/>
</svg>
