<svg width="800" height="800" viewBox="0 0 800 800" fill="none" xmlns="http://www.w3.org/2000/svg">
<path opacity='0.5' d="M334.585 177.206L356.219 215.97C375.742 250.953 367.905 296.844 337.155 327.593C337.155 327.593 299.861 364.893 367.482 432.517C435.082 500.117 472.405 462.843 472.405 462.843C503.155 432.093 549.045 424.257 584.029 443.78L622.792 465.414C675.619 494.893 681.855 568.973 635.425 615.407C607.525 643.307 573.345 665.017 535.562 666.447C471.959 668.86 363.942 652.763 255.589 544.41C147.236 436.057 131.139 328.041 133.55 264.436C134.983 226.654 156.692 192.475 184.592 164.575C231.024 118.143 305.104 124.382 334.585 177.206Z" fill="#737791"/>
</svg>
